<svg width="14" height="14" viewBox="0 0 14 14" fill="none" xmlns="http://www.w3.org/2000/svg">
<g id="paper-plane" clip-path="url(#clip0_1_803)">
<path id="Primary" d="M13.6202 0.153107C13.8964 0.344514 14.0413 0.675373 13.9893 1.00623L12.2393 12.3812C12.1983 12.6465 12.037 12.8789 11.8018 13.0101C11.5667 13.1414 11.2851 13.1578 11.0362 13.0539L7.76591 11.6949L5.89286 13.7211C5.6495 13.9863 5.26669 14.0738 4.93036 13.9426C4.59404 13.8113 4.37529 13.4859 4.37529 13.125V10.839C4.37529 10.7297 4.4163 10.6258 4.49013 10.5437L9.07294 5.5453C9.23153 5.37303 9.22607 5.1078 9.062 4.94373C8.89794 4.77967 8.63271 4.76873 8.46044 4.92459L2.89872 9.86561L0.484269 8.65701C0.194425 8.51209 0.00848793 8.22225 0.0002848 7.89959C-0.00791833 7.57694 0.161613 7.27615 0.440519 7.11483L12.6905 0.114826C12.9831 -0.0519706 13.344 -0.0355644 13.6202 0.153107Z" fill="white"/>
</g>
<defs>
<clipPath id="clip0_1_803">
<rect width="14" height="14" fill="white"/>
</clipPath>
</defs>
</svg>
