<svg width="14" height="14" viewBox="0 0 14 14" fill="none" xmlns="http://www.w3.org/2000/svg">
<g id="wallet">
<path id="Vector" d="M7.38504 1.4689L7.36754 1.50974L5.67587 5.43557H4.01337C3.61671 5.43557 3.23754 5.51724 2.89337 5.66307L3.9142 3.22474L3.93754 3.1664L3.97837 3.07307C3.99004 3.03807 4.00171 3.00307 4.01921 2.9739C4.78337 1.2064 5.6467 0.803902 7.38504 1.4689Z" stroke="#8995A2" stroke-width="0.777778" stroke-linecap="round" stroke-linejoin="round"/>
<path id="Vector_2" d="M10.5292 5.55224C10.2667 5.47057 9.98668 5.43557 9.70668 5.43557H5.67585L7.36752 1.50974L7.38502 1.4689C7.47252 1.49807 7.55418 1.5389 7.64168 1.5739L8.93085 2.1164C9.64835 2.4139 10.15 2.72307 10.4533 3.0964C10.5117 3.1664 10.5583 3.23057 10.5992 3.3064C10.6517 3.38807 10.6925 3.46974 10.7158 3.55724C10.7392 3.60974 10.7567 3.66224 10.7684 3.7089C10.9259 4.1989 10.8325 4.79974 10.5292 5.55224Z" stroke="#8995A2" stroke-width="0.777778" stroke-linecap="round" stroke-linejoin="round"/>
<path id="Vector_3" d="M12.5546 8.28237V9.41987C12.5546 9.53653 12.5488 9.6532 12.5429 9.76987C12.4321 11.8057 11.2946 12.8324 9.13626 12.8324H4.58626C4.44626 12.8324 4.30626 12.8207 4.17209 12.8032C2.31709 12.6807 1.32543 11.689 1.20293 9.83403C1.18543 9.69987 1.17376 9.55987 1.17376 9.41987V8.28237C1.17376 7.10987 1.88543 6.1007 2.90043 5.6632C3.25043 5.51737 3.62376 5.4357 4.02043 5.4357H9.71376C9.99959 5.4357 10.2796 5.47653 10.5363 5.55237C11.6971 5.9082 12.5546 6.9932 12.5546 8.28237Z" stroke="#8995A2" stroke-width="0.777778" stroke-linecap="round" stroke-linejoin="round"/>
<path id="Vector_4" d="M3.91416 3.22473L2.89333 5.66306C1.87833 6.10056 1.16666 7.10973 1.16666 8.28223V6.57306C1.16666 4.9164 2.345 3.5339 3.91416 3.22473Z" stroke="#8995A2" stroke-width="0.777778" stroke-linecap="round" stroke-linejoin="round"/>
<path id="Vector_5" d="M12.5528 6.57281V8.28198C12.5528 6.99864 11.7011 5.90781 10.5344 5.55781C10.8378 4.79948 10.9253 4.20448 10.7794 3.70864C10.7678 3.65614 10.7503 3.60364 10.7269 3.55698C11.8119 4.11698 12.5528 5.26614 12.5528 6.57281Z" stroke="#8995A2" stroke-width="0.777778" stroke-linecap="round" stroke-linejoin="round"/>
</g>
</svg>
